<?xml version="1.0" standalone="no"?>
<!DOCTYPE svg PUBLIC "-//W3C//DTD SVG 20010904//EN"
 "http://www.w3.org/TR/2001/REC-SVG-20010904/DTD/svg10.dtd">
<svg version="1.0" xmlns="http://www.w3.org/2000/svg"
 width="2000.000000pt" height="1238.000000pt" viewBox="0 0 2000.000000 1238.000000"
 preserveAspectRatio="xMidYMid meet">

<g transform="translate(0.000000,1238.000000) scale(0.100000,-0.100000)"
fill="#000000" stroke="none">
<path d="M3246 12369 c-721 -56 -1380 -318 -1953 -775 -226 -181 -516 -498
-689 -754 -587 -868 -752 -1938 -457 -2955 121 -416 344 -842 629 -1200 112
-141 387 -415 529 -529 166 -133 416 -294 603 -389 377 -191 730 -300 1160
-358 225 -31 639 -31 864 0 419 56 768 162 1128 343 224 112 324 174 595 372
9 7 35 -7 86 -46 509 -380 1087 -606 1744 -679 142 -16 558 -16 700 0 644 72
1201 286 1713 658 l104 75 41 -31 c135 -101 385 -258 532 -333 381 -193 731
-301 1164 -360 209 -28 607 -30 821 -4 419 50 781 157 1155 341 235 116 336
179 610 379 8 6 31 -5 71 -36 482 -368 1088 -610 1714 -684 176 -21 582 -24
745 -6 375 43 732 137 1052 278 992 436 1732 1314 1989 2359 178 723 124 1476
-154 2165 -272 676 -781 1273 -1417 1666 -189 116 -443 237 -657 313 -1092
384 -2315 201 -3242 -487 -63 -47 -92 -63 -102 -56 -7 5 -64 46 -126 91 -403
292 -891 499 -1393 592 -311 58 -726 73 -1025 37 -639 -76 -1214 -307 -1736
-697 l-42 -31 -125 90 c-463 332 -977 540 -1536 622 -528 77 -1072 32 -1581
-132 -357 -115 -704 -293 -1001 -514 -48 -35 -89 -64 -93 -64 -3 0 -50 33
-104 73 -405 301 -911 520 -1427 616 -261 49 -636 70 -889 50z m529 -810 c204
-19 453 -78 664 -155 140 -52 379 -171 506 -253 166 -107 155 -90 103 -158
-369 -485 -596 -1043 -683 -1673 -22 -161 -31 -544 -16 -722 56 -666 300
-1304 698 -1830 24 -31 43 -59 43 -61 0 -12 -233 -155 -353 -217 -293 -152
-627 -254 -949 -289 -229 -25 -584 -10 -813 35 -1058 208 -1900 1045 -2115
2102 -66 326 -68 728 -5 1060 159 839 749 1585 1530 1935 445 200 894 273
1390 226z m13005 0 c469 -42 965 -238 1358 -538 470 -357 818 -878 967 -1444
220 -838 39 -1704 -497 -2380 -93 -117 -288 -315 -398 -403 -417 -336 -907
-540 -1428 -595 -172 -18 -556 -7 -707 20 -411 73 -807 234 -1112 451 l-53 37
48 64 c381 505 616 1100 687 1739 18 160 20 547 4 706 -49 494 -203 981 -445
1400 -64 112 -176 281 -240 366 -24 31 -44 61 -44 67 0 27 301 207 480 287
445 197 878 268 1380 223z m-8550 -13 c271 -42 549 -130 795 -251 146 -72 395
-225 395 -243 0 -5 -22 -38 -48 -73 -344 -457 -578 -1018 -662 -1591 -135
-914 109 -1874 662 -2607 26 -35 48 -68 48 -73 0 -5 -51 -42 -112 -82 -318
-209 -656 -340 -1048 -407 -159 -27 -522 -37 -696 -20 -315 32 -645 128 -927
270 -170 85 -374 211 -383 236 -3 7 27 57 66 110 365 491 595 1098 661 1740
16 153 15 505 0 660 -63 624 -288 1220 -646 1709 -47 65 -84 124 -82 130 7 17
158 116 284 186 281 156 632 272 938 309 50 6 101 13 115 15 64 11 541 -3 640
-18z m4333 0 c292 -48 543 -127 792 -250 134 -66 310 -171 398 -237 5 -4 -24
-51 -64 -105 -372 -501 -598 -1092 -664 -1734 -21 -198 -16 -596 10 -780 82
-599 298 -1145 638 -1611 48 -66 87 -122 87 -124 0 -6 -217 -144 -297 -188
-311 -172 -665 -281 -1027 -318 -174 -17 -537 -7 -696 20 -274 47 -544 134
-773 250 -129 66 -304 170 -361 216 l-29 23 74 101 c359 487 584 1065 661
1696 17 144 17 604 0 750 -76 639 -299 1208 -668 1706 -35 48 -64 89 -64 91 0
9 192 134 289 187 272 151 612 266 906 305 66 9 134 18 150 20 76 10 545 -3
638 -18z m-6809 -1193 c167 -252 319 -616 379 -908 46 -221 52 -288 52 -565 0
-277 -6 -344 -52 -565 -61 -294 -211 -653 -382 -913 l-82 -124 -18 24 c-75 95
-212 332 -276 478 -313 706 -311 1510 5 2211 84 187 261 479 290 479 4 0 42
-53 84 -117z m4337 -5 c390 -597 524 -1317 378 -2028 -48 -231 -127 -451 -245
-680 -75 -144 -199 -340 -220 -347 -14 -5 -92 108 -175 252 -158 275 -271 599
-325 930 -22 134 -30 548 -14 687 52 454 192 842 437 1211 36 53 69 97 74 97
6 0 46 -55 90 -122z m4330 10 c141 -213 272 -503 344 -757 129 -463 127 -995
-6 -1460 -71 -249 -200 -528 -339 -739 -44 -67 -82 -122 -84 -122 -2 0 -40 55
-84 123 -278 427 -420 876 -439 1387 -19 552 131 1096 428 1551 64 98 88 129
99 129 3 0 40 -51 81 -112z"/>
<path d="M4265 3511 c97 -115 183 -215 191 -222 12 -10 12 -13 0 -23 -14 -11
-2116 -3161 -2116 -3171 0 -3 275 -4 611 -3 l612 3 163 270 c90 149 168 284
174 300 l10 30 1169 0 1170 0 4 -21 c2 -12 82 -148 177 -303 l173 -281 630 0
c534 0 628 2 624 14 -3 8 -546 824 -1206 1815 l-1201 1801 -680 0 -681 0 176
-209z m857 -989 c51 -105 610 -1022 664 -1087 l32 -40 -747 0 -748 0 42 50
c51 61 621 1003 667 1103 18 39 35 71 38 71 3 0 26 -43 52 -97z"/>
<path d="M12806 3708 c26 -42 758 -850 842 -929 l102 -96 -84 34 c-161 64
-244 77 -491 77 -366 0 -662 -58 -975 -191 -456 -195 -734 -487 -837 -882 -34
-130 -43 -363 -19 -500 45 -256 166 -480 371 -686 165 -165 368 -284 642 -375
590 -195 1327 -208 1958 -35 571 157 930 458 1079 906 95 285 86 597 -25 876
-104 263 -224 438 -817 1188 l-489 620 -632 3 c-506 2 -631 0 -625 -10z m894
-1597 c171 -34 269 -75 397 -163 131 -90 236 -220 285 -354 32 -86 32 -262 0
-355 -94 -273 -370 -469 -734 -523 -133 -20 -343 -20 -473 -1 -264 40 -465
132 -609 281 -238 244 -241 573 -8 825 147 158 356 263 607 304 123 20 405 13
535 -14z"/>
<path d="M15760 1420 l0 -1330 545 0 545 0 0 1330 0 1330 -545 0 -545 0 0
-1330z"/>
<path d="M7660 1888 c0 -676 3 -839 15 -914 38 -235 127 -407 291 -564 219
-209 530 -333 974 -386 269 -33 736 -23 1005 22 350 58 613 183 817 387 129
129 206 262 255 442 l28 100 3 868 3 867 -530 0 -529 0 -5 -777 c-5 -848 -6
-862 -63 -974 -58 -115 -186 -206 -351 -250 -103 -28 -312 -30 -423 -4 -166
38 -287 127 -347 255 -67 143 -73 220 -73 1048 l0 702 -535 0 -535 0 0 -822z"/>
</g>
</svg>
