<svg version="1.0" xmlns="http://www.w3.org/2000/svg"
 width="550pt" height="270pt" viewBox="0 0 550 270"
 preserveAspectRatio="xMidYMid meet">

  <!-- Centralização e redimensionamento -->
  <g transform="translate(30,100) scale(0.1,-0.1)" stroke="none">

    <g transform="translate(0,-400) scale(0.9)">
      <path d="M197 1004 c-13 -13 -8 -172 6 -181 6 -4 283 -10 614 -13 592 -5 602
      -5 630 -26 58 -44 55 -112 -7 -148 -34 -20 -51 -21 -629 -24 -419 -2 -599 -6
      -608 -14 -10 -8 -13 -34 -11 -92 l3 -81 600 -5 c546 -5 603 -7 632 -22 93 -51
      80 -148 -23 -177 -26 -7 -235 -11 -614 -11 -316 0 -581 -4 -588 -9 -9 -5 -12
      -31 -10 -92 l3 -84 645 0 c638 0 646 0 691 21 178 83 235 293 119 441 l-19 25
      24 32 c39 51 55 101 55 168 0 83 -31 149 -98 209 -95 86 -71 83 -782 87 -344
      1 -629 0 -633 -4z"/>
      <path d="M1940 995 c-9 -11 -11 -71 -8 -232 3 -211 4 -220 28 -268 31 -58 83
      -90 175 -105 91 -15 427 -13 449 3 14 10 16 26 14 97 l-3 85 -180 6 c-99 3
      -188 9 -198 13 -39 18 -47 57 -47 229 0 113 -4 167 -12 175 -19 19 -202 16
      -218 -3z"/>
      <path d="M3385 998 c-2 -7 -6 -90 -7 -184 -3 -193 -7 -205 -77 -224 -20 -5
      -161 -10 -318 -10 -269 0 -283 -1 -293 -19 -11 -21 -15 -497 -4 -525 9 -24
      259 -24 268 0 3 9 6 89 6 179 l0 163 233 4 c267 6 315 15 366 73 17 20 34 48
      38 63 5 15 8 131 8 257 l0 230 -108 3 c-80 2 -108 -1 -112 -10z"/>
      <path d="M3837 1004 c-4 -4 -7 -45 -7 -90 0 -72 3 -85 19 -94 13 -6 176 -10
      458 -10 563 -1 634 -10 728 -92 71 -62 90 -106 90 -208 0 -97 -12 -127 -75
      -190 -97 -97 -125 -101 -712 -107 -383 -4 -490 -8 -498 -18 -6 -8 -10 -46 -8
      -92 l3 -78 550 0 c549 0 550 0 617 23 141 49 249 141 307 262 33 69 36 83 39
      183 3 88 0 118 -17 168 -42 124 -115 207 -240 273 -130 68 -137 69 -721 73
      -289 3 -528 1 -533 -3z"/>
    </g>
  </g>
</svg>
