<?xml version="1.0" standalone="no"?>
<!DOCTYPE svg PUBLIC "-//W3C//DTD SVG 20010904//EN"
 "http://www.w3.org/TR/2001/REC-SVG-20010904/DTD/svg10.dtd">
<svg version="1.0" xmlns="http://www.w3.org/2000/svg"
 width="800.000000pt" height="800.000000pt" viewBox="0 0 800.000000 800.000000"
 preserveAspectRatio="xMidYMid meet">

<g transform="translate(0.000000,800.000000) scale(0.100000,-0.100000)"
fill="#000000" stroke="none">
<path d="M3865 7584 c-363 -77 -966 -489 -1755 -1197 -482 -432 -1316 -1266
-1776 -1774 -192 -213 -299 -422 -323 -633 -11 -101 4 -614 20 -683 15 -65 51
-107 92 -107 41 0 71 20 187 120 119 104 515 434 680 566 904 725 1645 1227
2235 1515 224 109 347 157 515 202 103 27 130 30 260 30 130 0 157 -3 260 -30
63 -17 160 -47 215 -67 137 -51 508 -234 690 -341 681 -399 1559 -1049 2480
-1835 88 -75 170 -142 182 -148 63 -34 121 5 142 95 16 69 31 585 20 685 -24
209 -131 419 -323 631 -344 380 -1241 1286 -1589 1605 -799 731 -1372 1155
-1782 1315 -165 65 -292 80 -430 51z"/>
<path d="M3895 4805 c-302 -56 -772 -342 -1353 -827 -507 -421 -1159 -1041
-1772 -1683 -523 -549 -595 -635 -674 -806 -97 -211 -108 -315 -86 -764 12
-222 20 -265 63 -301 57 -48 74 -39 310 164 373 322 900 742 1307 1044 905
669 1623 1077 2085 1184 304 70 571 8 1085 -252 679 -342 1747 -1108 2754
-1972 191 -165 229 -192 263 -192 32 0 78 44 91 87 13 43 32 372 32 560 0 310
-97 527 -373 826 -262 285 -682 719 -988 1022 -1203 1188 -2072 1838 -2559
1915 -79 12 -96 12 -185 -5z"/>
</g>
</svg>
