<?xml version="1.0" standalone="no"?>
<!DOCTYPE svg PUBLIC "-//W3C//DTD SVG 20010904//EN"
 "http://www.w3.org/TR/2001/REC-SVG-20010904/DTD/svg10.dtd">
<svg version="1.0" xmlns="http://www.w3.org/2000/svg"
 width="320.000000pt" height="320.000000pt" viewBox="0 0 320.000000 320.000000"
 preserveAspectRatio="xMidYMid meet">

<g transform="translate(0.000000,320.000000) scale(0.100000,-0.100000)"
fill="#000000" stroke="none">
<path d="M1379 2855 c-331 -45 -612 -185 -742 -367 -79 -111 -106 -211 -87
-320 45 -258 324 -467 732 -550 96 -19 144 -23 318 -23 174 0 222 4 318 23
408 83 687 292 732 550 19 109 -8 209 -87 320 -194 272 -708 432 -1184 367z
m401 -39 c284 -43 514 -176 624 -360 20 -33 36 -64 36 -68 0 -5 -170 -7 -377
-6 l-378 3 -40 212 c-22 117 -42 213 -45 213 -3 0 -23 -96 -45 -213 l-40 -212
-378 -3 c-207 -1 -377 1 -377 6 0 4 16 35 36 68 161 269 577 421 984 360z
m-667 -515 c180 -38 331 -71 334 -74 3 -3 -57 -121 -132 -262 -158 -295 -133
-276 -265 -202 -149 84 -270 227 -306 361 -25 94 -10 246 24 246 9 0 165 -31
345 -69z m1346 19 c35 -161 -19 -310 -158 -443 -73 -69 -197 -149 -252 -162
-26 -6 -31 1 -164 250 -75 141 -135 259 -132 262 7 7 643 141 674 142 18 1 23
-7 32 -49z m-650 -405 c110 -115 197 -213 193 -216 -35 -32 -253 -69 -402 -69
-164 0 -399 44 -400 75 0 13 393 425 402 422 4 -1 97 -96 207 -212z"/>
<path d="M2406 1424 c-131 -32 -269 -131 -316 -228 -30 -64 -37 -148 -16 -219
13 -44 30 -71 76 -120 99 -106 214 -156 380 -164 191 -9 333 39 446 153 64 63
78 96 48 108 -9 3 -71 6 -140 6 l-124 0 -26 -30 c-62 -69 -180 -93 -260 -52
-136 70 -163 230 -58 336 40 40 83 56 149 56 63 0 106 -15 152 -54 31 -26 33
-27 165 -24 l133 3 3 26 c2 21 -8 36 -51 75 -69 64 -137 100 -233 124 -92 24
-239 26 -328 4z"/>
<path d="M795 1421 c-48 -20 -50 -30 -55 -288 l-5 -245 -28 -24 c-26 -22 -37
-24 -132 -24 -127 0 -150 13 -169 100 l-12 55 -117 3 -117 3 0 -47 c0 -69 19
-120 64 -171 62 -71 72 -73 350 -73 135 0 256 4 269 9 38 15 96 70 120 115 21
39 22 52 22 316 l0 275 -85 2 c-47 1 -94 -2 -105 -6z"/>
<path d="M1432 1418 c-25 -12 -422 -665 -422 -693 0 -12 19 -15 106 -15 58 0
113 4 122 9 10 5 80 111 157 235 94 152 145 226 156 226 19 0 142 -187 133
-202 -3 -4 -43 -8 -89 -8 -46 0 -95 -5 -107 -11 -27 -12 -83 -104 -73 -119 4
-6 75 -10 181 -10 196 0 179 6 247 -83 l28 -37 114 0 c77 0 115 4 115 11 0 16
-396 674 -416 690 -22 18 -219 24 -252 7z"/>
<path d="M2891 521 c-13 -3 -29 -14 -35 -24 -16 -25 2 -48 57 -74 51 -25 56
-33 31 -54 -13 -11 -21 -10 -50 6 -37 20 -55 14 -38 -13 17 -26 67 -37 100
-20 22 10 29 20 29 43 0 25 -7 33 -40 50 -66 34 -67 35 -54 51 15 18 44 18 63
-1 18 -19 36 -19 36 -1 0 29 -55 50 -99 37z"/>
<path d="M210 425 c0 -78 3 -95 15 -95 12 0 15 14 15 63 l0 62 34 -53 33 -54
34 54 34 53 3 -62 c2 -47 7 -63 17 -63 12 0 15 19 15 95 0 84 -2 95 -17 95
-11 0 -29 -20 -46 -50 -15 -27 -32 -52 -37 -55 -5 -3 -24 19 -42 50 -48 80
-58 73 -58 -40z"/>
<path d="M795 495 c-42 -41 -29 -131 22 -154 40 -18 73 -13 104 18 33 33 38
75 14 120 -16 33 -33 41 -81 41 -24 0 -43 -8 -59 -25z m109 -27 c22 -31 20
-64 -4 -88 -41 -41 -100 -13 -100 46 0 18 7 40 16 48 23 24 70 20 88 -6z"/>
<path d="M1292 508 c3 -7 19 -14 36 -16 l32 -3 0 -80 c0 -64 3 -79 15 -79 12
0 15 15 15 79 l0 80 32 3 c17 2 33 9 36 16 3 9 -18 12 -83 12 -65 0 -86 -3
-83 -12z"/>
<path d="M1841 503 c-12 -10 -24 -35 -28 -55 -11 -69 28 -118 93 -118 37 0 84
51 84 90 0 37 -23 85 -45 94 -31 12 -83 6 -104 -11z m101 -30 c39 -35 8 -113
-46 -113 -29 0 -56 34 -56 69 0 53 62 80 102 44z"/>
<path d="M2350 425 c0 -78 3 -95 15 -95 10 0 15 11 15 35 0 23 5 35 14 35 7 0
26 -16 40 -35 15 -19 34 -35 42 -35 20 0 18 14 -6 35 -11 10 -20 22 -20 27 0
4 9 17 20 28 48 48 13 100 -68 100 l-52 0 0 -95z m106 50 c9 -23 -15 -45 -47
-45 -26 0 -29 4 -29 30 0 28 3 30 35 30 23 0 38 -6 41 -15z"/>
</g>
</svg>
