<svg viewBox="0 0 652 652" xmlns="http://www.w3.org/2000/svg" xml:space="preserve">
  <style type="text/css">
    .st0{fill:#000000;}
    .st1{fill:none;}
    .st2{fill:none;stroke:#000000;stroke-width:2.75;stroke-miterlimit:22.9256;}
    .st3{fill:#000000;}
  </style>
  <g id="layer1">
    <g>
      <path class="st0" d="M240,670.9l1.6-0.1c0.1,0.6,0.3,1.2,0.5,1.6c0.3,0.4,0.7,0.7,1.3,1c0.6,0.3,1.2,0.4,2,0.4
        c0.7,0,1.2-0.1,1.7-0.3s0.9-0.5,1.1-0.8s0.4-0.7,0.4-1.1c0-0.4-0.1-0.8-0.4-1.1s-0.6-0.6-1.2-0.8c-0.3-0.1-1.1-0.3-2.3-0.6
        s-2-0.6-2.5-0.8c-0.6-0.3-1.1-0.7-1.4-1.2c-0.3-0.5-0.5-1-0.5-1.6c0-0.7,0.2-1.3,0.6-1.8s0.9-1,1.6-1.3s1.5-0.4,2.4-0.4
        c1,0,1.8,0.2,2.5,0.5c0.7,0.3,1.3,0.8,1.7,1.4s0.6,1.3,0.6,2l-1.6,0.1c-0.1-0.8-0.4-1.4-0.9-1.8c-0.5-0.4-1.3-0.6-2.2-0.6
        c-1,0-1.8,0.2-2.3,0.6c-0.5,0.4-0.7,0.8-0.7,1.4c0,0.5,0.2,0.8,0.5,1.1c0.3,0.3,1.2,0.6,2.6,0.9c1.4,0.3,2.3,0.6,2.9,0.8
        c0.8,0.3,1.3,0.8,1.7,1.3s0.5,1.1,0.5,1.8c0,0.7-0.2,1.3-0.6,1.9c-0.4,0.6-1,1.1-1.7,1.4c-0.7,0.3-1.6,0.5-2.5,0.5
        c-1.2,0-2.1-0.2-2.9-0.5c-0.8-0.3-1.4-0.9-1.9-1.5C240.3,672.6,240,671.8,240,670.9z"/>
    </g>
  </g>
  <g id="layer2">
    <path class="st1" d="M142.2,100.7h372.6c21.3,0,38.7,14.2,38.7,31.6v245.1c0,17.4-62.3,55.5-129.5,55.5H229.4
      c-21.3,0-125.8-23-125.8-51.8V132.3C103.5,114.9,120.9,100.7,142.2,100.7z"/>
    <path class="st2" d="M142.2,100.7h372.6c21.3,0,38.7,14.2,38.7,31.6v245.1c0,17.4-62.3,55.5-129.5,55.5H229.4
      c-21.3,0-125.8-23-125.8-51.8V132.3C103.5,114.9,120.9,100.7,142.2,100.7z"/>
    <path class="st3" d="M121.3,146.9v209.9c0,53.8,140.3,55.7,180.4,58h25.2c52,0,124.9-2.1,173.9-22.5c9.3-3.9,14.2-4.7,21.1-11.7
      c5.7-5.7,9-12.7,9-23.8V146.4c0-16.1-16.9-25.2-31.1-25.2H149.2C135.1,121.2,121.3,133.6,121.3,146.9 
      M336.1,175c0.6-3,2.8-15.6,4.6-22.5c1.1-4.1,1.8-4.5,5.6-4.5h142.2c3.8,0,1.9,5.4,1.5,8.1l-5.5,26.2c-0.1,0.6-0.1,1.1-0.8,1.1
      c-15.7,0-31.5,0-47.2,0c-4.1,0-11.9-0.4-17.8-0.2c-8.4,0.2-16.4,2.7-24.3,5.4c-10.5,3.5-21.1,12.4-25.4,21.8
      c-3.2,7.1-4.1,8.9-6.5,17.1l-26.7,132c-0.1,1.1,0,2.3-2.4,2.1l-32.1-0.1c-2.2,0-2.1-1.7-1.8-3.2L336.1,175z
      M282.3,378.3c-1,0.7-0.9,1.1-2.1,1.1h-32.4c-1.6-0.1-1.6-1.7-1.2-3.6l25.6-129.6c2.5-15.5-0.7-21.8-7.5-31.1c-5.5-7.5-14.8-11.2-26-13.2
      c-19.7-3.5-55.1,0.5-77.1-1.3c0-5.7,2.4-12.3,3.4-18c0.6-3.7,2.1-16.9,5.1-16.9h151.4c2.6,0,2.7,0.4,2.7,2.7L283,374.7
      C282.8,375.9,282.5,377.1,282.3,378.3z"/>
    <path class="st3" d="M510.9,94.9H140.4c-10.9,0-22.7,6.6-30.3,14.1c-3.4,3.3-6.5,7.9-8.7,12.2c-5.2,10.2-6.4,19.5-6.4,34.9v206.6
      c0,23.9,11.7,40.8,28.1,48.3c79,24.4,141.5,30.6,211.4,30.6c60.4,0,122.7-5.6,180.3-24.2c21.2-6.9,43-20.4,43-50.4l0.4-222.1
      c0-9.6-3.4-21.1-9.4-28.6c-2.9-3.6-5.6-6.6-9.4-9.4C531.7,101.1,520.7,94.9,510.9,94.9 
      M103.5,153.4c0-14.5,4.9-26.6,12.2-33.9c-6-6,18.8-15.4,30.2-15.4h359.7c10.3,0,23.6,7.7,28.9,13c5.7,5.7,14.1,16.8,14.1,27.8v223.3c0,12.4-10.8,24.4-18,30.4
      c-10.2,8.6-23.5,12.4-40.5,17c-46.2,12.3-110.5,16.6-146.6,17.6c-63.6-1.1-136-4.8-197.6-24.2c-14.6-5.1-26.7-8.4-35.3-22.7
      c-3.5-5.7-7.1-14.8-7.1-23.5V153.4z"/>
    <path class="st3" d="M540,539.3h-58V528h53.1v-12.9h-51.5c-1.2,0-1.6-0.4-1.6-1.6v-9.7h58v-17.7h-80V557h80V539.3z"/>
    <path class="st3" d="M112.7,557h22v-20.9h38.1c5.4,0.3,7,0.8,7,9.7V557h22c0-14,2.5-23.7-5.9-28c-3.6-1.9-5.4-1.9-9.4-2.3l5.1-0.3
      c7.3-0.2,10.2-7.7,10.2-15.6v-5.4c0-12.9-5.3-19.3-18.3-19.3h-70.9V557z M135.2,503.9h38.1c4,0,5.9,1.9,5.9,5.9v5.4
      c0,3.3-1.9,4.8-5.4,4.8h-38.7V503.9z"/>
    <path class="st3" d="M257.1,557c28.4,0,42.4-0.1,42.4-29.5v-12.9c0-2.5-0.2-4.9-0.5-7.2c-1.8-12.8-9-20.8-22-20.9l-33.3-0.3
      c-19.1,0-32.7,4.2-32.7,23.1v21.5c0,21.1,11.2,26.3,32.2,26.3H257.1z M246.9,504.4h14.5c11.6,0,16.6,2.1,16.6,14v5.9
      c0,11.3-2.3,14.5-11.2,15.3c-2.3,0.2-7,0.3-9.8,0.3h-11.3c-10.1,0.3-13.5-4.6-13.3-15l0.2-7.3C233.6,508,235.8,504.4,246.9,504.4z"/>
    <polygon class="st3" points="384.3,557 450.9,557 450.9,539.3 406.8,539.3 406.8,486.2 384.3,486.2"/>
    <polygon class="st3" points="48.3,556.8 48.3,503.7 15,503.7 15,485.8 103.4,485.8 103.4,503.7 70,503.7 70,556.8"/>
    <polygon class="st3" points="309.5,557 376,557 376,539.3 332,539.3 332,486.2 309.5,486.2"/>
    <path class="st3" d="M549.2,556.8h22v-20.9h38.1c5.4,0.3,7,0.8,7,9.7v11.3h22c0-14,2.5-23.7-5.9-28c-3.6-1.9-5.4-1.9-9.4-2.3
      l5.1-0.3c7.3-0.2,10.2-7.7,10.2-15.6v-5.4c0-12.9-5.3-19.3-18.2-19.3h-70.9V556.8z M571.7,503.7h38.1c4,0,5.9,1.9,5.9,5.9v5.4
      c0,3.3-1.9,4.8-5.4,4.8h-38.6V503.7z"/>
  </g>
</svg>
